# xmcd CD database file
#
# Track frame offsets:
#	150
#	22115
#	42605
#	63010
#	81935
#	113778
#	131443
#
# Disc length: 2253 seconds
#
# Revision: 0
# Processed by: cddbd v1.5.2PL0 Copyright (c) Steve Scherf et al.
# Submitted via: CDex 1.51
#
DISCID=5908cb07
DTITLE=Various Artist - American Folk Blues Festival 1982
DYEAR=1982
DGENRE=Blues
TTITLE0=Cairo Blues - James "Son" Thomas
TTITLE1=The Road Is Raugh And Rocky - Archie Edwards
TTITLE2=Bye Bye Baby - "Bowling Green John" Cephas and "Harmonica Phil" Wiggins
TTITLE3=Tribute To Big Walter - Blues Harp Meeting: Carey Bell and Billy Branch
TTITLE4=The Train I Ride - Lurrie Bell and Billy Branch (Chicago's Young Blues Generation)
TTITLE5=Goin' On Main Street - Carey Bell's Blues Harp Band
TTITLE6=Mistreated Woman - Margie Evans
EXTD=YEAR: 1982
EXTT0=
EXTT1=
EXTT2=
EXTT3=
EXTT4=
EXTT5=
EXTT6=
PLAYORDER=
